# AST/ASF file generated using VICON BodyLanguage
# -----------------------------------------------
:version 1.10
:name VICON
:units
  mass 1.0
  length 0.45
  angle deg
:documentation
   .ast/.asf automatically generated from VICON data using
   VICON BodyBuilder and BodyLanguage model FoxedUp or BRILLIANT.MOD
:root
   order TX TY TZ RX RY RZ
   axis XYZ
   position 0 0 0  
   orientation 0 0 0 
:bonedata
  begin
     id 1 
     name lhipjoint
     direction 0.573633 -0.743009 0.344793 
     length 2.46257 
     axis 0 0 0  XYZ
  end
  begin
     id 2 
     name lfemur
     direction 0.34202 -0.939693 0  
     length 7.3842  
     axis 0 0 20  XYZ
    dof rx ry rz
    limits (-160.0 20.0)
           (-70.0 70.0)
           (-60.0 70.0)
  end
  begin
     id 3 
     name ltibia
     direction 0.34202 -0.939693 0   
     length 7.50407   
     axis 0 0 20   XYZ
    dof rx
    limits (-10.0 170.0)
  end
  begin
     id 4 
     name lfoot
     direction 0.110749 -0.304281 0.946123   
     length 1.95925   
     axis -90 7.62852e-016 20   XYZ
    dof rx rz
    limits (-45.0 90.0)
           (-70.0 20.0)
  end
  begin
     id 5 
     name ltoes
     direction 1.53554e-011 -4.21843e-011 1   
     length 0.978318   
     axis -90 7.62852e-016 20   XYZ
    dof rx
    limits (-90.0 20.0)
  end
  begin
     id 6 
     name rhipjoint
     direction -0.488109 -0.791693 0.367385   
     length 2.31113  
     axis 0 0 0  XYZ 
  end
  begin
     id 7 
     name rfemur
     direction -0.34202 -0.939693 0   
     length 7.40965   
     axis 0 0 -20   XYZ
    dof rx ry rz
    limits (-160.0 20.0)
           (-70.0 70.0)
           (-70.0 60.0)
  end
  begin
     id 8 
     name rtibia
     direction -0.34202 -0.939693 0   
     length 7.55548   
     axis 0 0 -20   XYZ
    dof rx
    limits (-10.0 170.0)
 end
 begin
     id 9 
     name rfoot
     direction -0.127594 -0.350561 0.927808   
     length 2.07199  
     axis -90 -7.62852e-016 -20   XYZ
    dof rx rz
    limits (-45.0 90.0)
           (-20.0 70.0)
  end
  begin
     id 10 
     name rtoes
     direction -1.53542e-011 -4.21909e-011 1   
     length 1.02667   
     axis -90 -7.62852e-016 -20   XYZ
    dof rx
    limits (-90.0 20.0)
  end
  begin
     id 11 
     name lowerback
     direction -0.0103342 0.997298 -0.0727278   
     length 2.02836   
     axis 0 0 0   XYZ
    dof rx ry rz
    limits (-20.0 45.0)
           (-30.0 30.0)
           (-30.0 30.0)
  end
  begin
     id 12 
     name upperback
     direction 0.0171146 0.999786 -0.011606   
     length 2.03179   
     axis 0 0 0   XYZ
    dof rx ry rz
    limits (-20.0 45.0)
           (-30.0 30.0)
           (-30.0 30.0)
  end
  begin
     id 13 
     name thorax
     direction 0.0216927 0.999513 0.0224343   
     length 2.03882   
     axis 0 0 0   XYZ
    dof rx ry rz
    limits (-20.0 45.0)
           (-30.0 30.0)
           (-30.0 30.0)
  end
  begin
     id 14 
     name lowerneck
     direction 0.000989287 0.993907 0.110221   
     length 1.75428   
     axis 0 0 0   XYZ
    dof rx ry rz
    limits (-20.0 45.0)
           (-30.0 30.0)
           (-30.0 30.0)
  end
  begin
     id 15 
     name upperneck
     direction -0.0172474 0.994813 -0.100253   
     length 1.77058   
     axis 0 0 0   XYZ
    dof rx ry rz
    limits (-20.0 45.0)
           (-30.0 30.0)
           (-30.0 30.0)
  end
  begin
     id 16
     name head
     direction -0.00486455 0.99894 -0.0457663  
     length 1.77427  
     axis 0 0 0   XYZ
    dof rx ry rz
    limits (-20.0 45.0)
           (-30.0 30.0)
           (-30.0 30.0)
  end
  begin
     id 17 
     name lclavicle
     direction 0.927314 0.333734 -0.169441  
     length 3.97584  
     axis 0 0 0   XYZ
    dof ry rz
    limits (-20.0 10.0)
           (0.0 20.0)
  end
  begin
     id 18 
     name lhumerus
     direction 1 -4.48965e-011 -3.25313e-028   
     length 4.76468   
     axis 180 -30 -90   XYZ
    dof rx ry rz
    limits (-60.0 90.0)
           (-90.0 90.0)
           (-90.0 90.0)
  end
  begin
     id 19
     name lradius
     direction 1 -4.48969e-011 -2.8465e-028   
     length 3.52712   
     axis -180 -30 -90   XYZ
    dof rx
    limits (-10.0 170.0)
  end
  begin
     id 20
     name lwrist
     direction 1 -4.4896e-011 -7.78665e-028   
     length 1.76356   
     axis 1.91374e-015 90 90   XYZ
    dof ry
    limits (-180.0 0.0)
 end
  begin
     id 21 
     name lhand
     direction 1 -4.48959e-011 -1.55733e-027   
     length 0.859564   
     axis 9.9371e-016 90 90   XYZ
    dof rx rz
    limits (-90.0 90.0)
           (-45.0 45.0)
  end
  begin
     id 22 
     name lfingers
     direction 1 -4.48965e-011 -3.11466e-027   
     length 0.693002   
     axis 1.98742e-015 90 90   XYZ
    dof rx
    limits (0.0 90.0)
  end
  begin
     id 23
     name lthumb
     direction 0.707107 -6.34948e-011 0.707107   
     length 0.995017   
     axis -90 45 2.85299e-015   XYZ
    dof rx rz
    limits (-45.0 45.0)
           (-45.0 45.0)
  end
  begin
     id 24 
     name rclavicle
     direction -0.899388 0.348209 -0.264294   
     length 3.68366  
     axis 0 0 0   XYZ 
    dof ry rz
    limits (-10.0 20.0)
           (-20.0 0.0)
  end
  begin
     id 25 
     name rhumerus
     direction -1 -4.48965e-011 -3.01536e-027  
     length 4.90577   
     axis 180 30 90   XYZ
    dof rx ry rz
    limits (-90.0 60.0)
           (-90.0 90.0)
           (-90.0 90.0)
  end
  begin
     id 26 
     name rradius
     direction -1 -4.48966e-011 3.93291e-027   
     length 3.42692   
     axis -180 30 90   XYZ
    dof rx
    limits (-10.0 170.0)
  end
  begin
     id 27 
     name rwrist
     direction -1 -4.48969e-011 -7.78665e-028   
     length 1.71346   
     axis 1.91374e-015 -90 -90   XYZ
    dof ry
    limits (-180.0 0.0)
  end
  begin
     id 28
     name rhand
     direction -1 -4.48967e-011 -1.55733e-027   
     length 0.740957   
     axis 9.9371e-016 -90 -90   XYZ
    dof rx rz
    limits (-90.0 90.0)
           (-45.0 45.0)
  end
  begin
     id 29
     name rfingers
     direction -1 -4.48949e-011 -3.11466e-027   
     length 0.597378   
     axis 1.98742e-015 -90 -90   XYZ
    dof rx
    limits (0.0 90.0)
  end
  begin
     id 30
     name rthumb
     direction -0.707107 -6.34931e-011 0.707107   
     length 0.857719   
     axis -90 -45 -2.85299e-015   XYZ
    dof rx rz
    limits (-45.0 45.0)
           (-45.0 45.0)
  end
:hierarchy
  begin
    root lhipjoint rhipjoint lowerback
    lhipjoint lfemur
    lfemur ltibia
    ltibia lfoot
    lfoot ltoes
    rhipjoint rfemur
    rfemur rtibia
    rtibia rfoot
    rfoot rtoes
    lowerback upperback
    upperback thorax
    thorax lowerneck lclavicle rclavicle
    lowerneck upperneck
    upperneck head
    lclavicle lhumerus
    lhumerus lradius
    lradius lwrist
    lwrist lhand lthumb
    lhand lfingers
    rclavicle rhumerus
    rhumerus rradius
    rradius rwrist
    rwrist rhand rthumb
    rhand rfingers
  end

#!OML:ASF E:\I on waltz\AllaLogoMonkeySwing\Project 1\Capture day 1\Session 1\Subject1.ASF
:FULLY-SPECIFIED
:DEGREES
365
root -1.23116 17.8474 -3.3661 179.888 158.783 176.779
lowerback 9.99562 -0.868814 -1.40014
upperback 2.03718 -1.18619 2.45206
thorax -3.4011 -0.561895 3.49077
lowerneck -12.7863 -0.336673 -1.37267
upperneck 32.8774 0.20162 -0.342656
head 13.1354 -0.0573501 0.152951
rclavicle 2.96935e-014 -3.37934e-014
rhumerus -33.7328 -29.8355 -66.9386
rradius 25.5981
rwrist 1.26846
rhand -7.72874 -37.6854
rfingers 7.12502
rthumb 18.1698 -66.8567
lclavicle 2.96935e-014 -3.37934e-014
lhumerus -35.9844 18.7359 71.624
lradius 49.5339
lwrist 8.13659
lhand -11.3089 -13.4886
lfingers 7.12502
lthumb 14.7229 15.9686
rfemur -3.06559 -0.783035 21.0308
rtibia 21.0613
rfoot -16.2526 -4.89857
rtoes 8.23436
lfemur -11.1034 -1.66981 -9.66985
ltibia 38.1539
lfoot -17.6243 -1.32759
ltoes -27.9453
366
root -1.17943 17.8646 -3.38496 180.121 160.372 177.037
lowerback 9.87862 -0.792545 -1.35775
upperback 1.93882 -1.08392 2.38373
thorax -3.44804 -0.510809 3.38129
lowerneck -12.7052 -0.195533 -1.15371
upperneck 32.6535 0.410429 -0.588615
head 13.0222 0.0252134 0.0482029
rclavicle -3.72721e-015 4.77083e-015
rhumerus -34.0108 -30.6565 -65.9761
rradius 24.7574
rwrist 2.0714
rhand -7.75472 -37.6033
rfingers 7.12502
rthumb 18.1448 -66.7769
lclavicle -3.72721e-015 4.77083e-015
lhumerus -35.6479 17.3096 72.7102
lradius 51.2513
lwrist 7.7389
lhand -10.8638 -14.341
lfingers 7.12502
lthumb 15.1516 15.0843
rfemur -3.19002 -0.143664 20.5349
rtibia 20.7649
rfoot -16.1138 -3.93164
rtoes 8.40673
lfemur -10.4296 -4.19226 -9.87015
ltibia 35.5739
lfoot -18.3364 -1.84027
ltoes -27.3668
367
root -1.12306 17.8767 -3.40139 180.335 161.976 177.22
lowerback 9.73867 -0.702933 -1.27649
upperback 1.82261 -0.95856 2.34286
thorax -3.50203 -0.448342 3.2756
lowerneck -12.6803 -0.0888503 -1.04187
upperneck 32.4344 0.569594 -0.747761
head 12.9245 0.0842699 -0.0109435
rclavicle -4.07509e-015 6.16232e-015
rhumerus -34.5998 -31.2179 -65.1252
rradius 24.6077
rwrist 2.43637
rhand -8.38597 -37.9442
rfingers 7.12502
rthumb 17.5374 -67.1732
lclavicle -4.07509e-015 6.16232e-015
lhumerus -35.4109 15.9336 73.7292
lradius 52.8847
lwrist 7.40431
lhand -10.4303 -14.9958
lfingers 7.12502
lthumb 15.5692 14.3975
rfemur -3.34482 0.459689 20.089
rtibia 20.513
rfoot -15.9762 -2.96737
rtoes 8.91509
lfemur -9.63276 -6.67517 -10.0565
ltibia 32.753
lfoot -18.4617 -1.99268
ltoes -26.3828
368
root -1.06232 17.8842 -3.41393 180.545 163.517 177.402
lowerback 9.49878 -0.616631 -1.28286
upperback 1.75606 -0.844498 2.35915
thorax -3.44529 -0.392356 3.27815
lowerneck -12.6781 -0.0214873 -1.03815
upperneck 32.101 0.695406 -0.899987
head 12.7848 0.117134 -0.0529328
rclavicle -1.09332e-014 1.41137e-014
rhumerus -35.0379 -31.5113 -64.4087
rradius 24.5854
rwrist 2.38729
rhand -9.27727 -38.5828
rfingers 7.12502
rthumb 16.6795 -67.8862
lclavicle -1.09332e-014 1.41137e-014
lhumerus -35.1855 14.6719 74.7974
lradius 54.4043
lwrist 7.11902
lhand -10.1947 -15.3844
lfingers 7.12502
lthumb 15.7961 13.9911
rfemur -3.48168 0.9571 19.6
rtibia 20.2977
rfoot -15.9914 -1.98044
rtoes 9.32596
lfemur -8.75533 -8.96474 -10.2984
ltibia 29.8594
lfoot -17.7554 -2.20516
ltoes -27.2147
369
root -1.00111 17.8875 -3.42625 180.713 164.992 177.588
lowerback 9.27397 -0.554066 -1.39213
upperback 1.69902 -0.77083 2.40483
thorax -3.38246 -0.355342 3.37529
lowerneck -12.6302 0.0442778 -1.02342
upperneck 31.7173 0.818147 -1.0674
head 12.6162 0.149059 -0.102713
rclavicle 1.49585e-014 -1.78906e-014
rhumerus -35.3814 -31.891 -63.5291
rradius 24.3501
rwrist 3.24282
rhand -8.99004 -39.0249
rfingers 7.12502
rthumb 16.956 -68.3048
lclavicle 1.49585e-014 -1.78906e-014
lhumerus -35.0579 13.5276 75.7916
lradius 55.7629
lwrist 6.83448
lhand -10.1811 -15.5456
lfingers 7.12502
lthumb 15.8092 13.8289
rfemur -3.63034 1.44605 19.0961
rtibia 20.2313
rfoot -16.2073 -1.04739
rtoes 9.30055
lfemur -7.87031 -10.7608 -10.5745
ltibia 27.1539
lfoot -16.6225 -2.45125
ltoes -28.5868
370
root -0.93971 17.8856 -3.44078 180.882 166.363 177.757
lowerback 9.07872 -0.545336 -1.56426
upperback 1.59543 -0.773635 2.45706
thorax -3.3783 -0.354242 3.52547
lowerneck -12.5558 0.148679 -0.968599
upperneck 31.3634 0.963977 -1.16768
head 12.4556 0.205097 -0.130304
rclavicle -1.98785e-016 -5.56597e-015
rhumerus -35.7853 -32.4528 -62.4789
rradius 23.9838
rwrist 4.55116
rhand -8.05012 -38.8934
rfingers 7.12502
rthumb 17.8606 -68.0933
lclavicle -1.98785e-016 -5.56597e-015
lhumerus -35.033 12.5549 76.5942
lradius 56.9283
lwrist 6.55597
lhand -9.93448 -15.6204
lfingers 7.12502
lthumb 16.0467 13.7351
rfemur -3.90173 1.86409 18.5977
rtibia 20.2794
rfoot -16.1858 -0.110763
rtoes 9.20754
lfemur -7.17657 -11.9114 -10.8179
ltibia 24.9186
lfoot -15.9208 -2.33499
ltoes -28.9604
